<mxfile host="app.diagrams.net" modified="2023-06-07T08:09:51.271Z" agent="Mozilla/5.0 (Windows NT 10.0; Win64; x64) AppleWebKit/537.36 (KHTML, like Gecko) Chrome/114.0.0.0 Safari/537.36" etag="Gq4rQz_WofQtEQD1qwve" version="21.3.7" type="device">
  <diagram name="Page-1" id="2YBvvXClWsGukQMizWep">
    <mxGraphModel dx="1295" dy="1371" grid="1" gridSize="10" guides="1" tooltips="1" connect="1" arrows="1" fold="1" page="1" pageScale="1" pageWidth="850" pageHeight="1100" math="0" shadow="0">
      <root>
        <mxCell id="0" />
        <mxCell id="1" parent="0" />
        <mxCell id="X3vRfwmlhp6RXAS6wT66-1" value="VerbalizeStudentsMarks" style="shape=umlLifeline;perimeter=lifelinePerimeter;whiteSpace=wrap;html=1;container=0;dropTarget=0;collapsible=0;recursiveResize=0;outlineConnect=0;portConstraint=eastwest;newEdgeStyle={&quot;edgeStyle&quot;:&quot;elbowEdgeStyle&quot;,&quot;elbow&quot;:&quot;vertical&quot;,&quot;curved&quot;:0,&quot;rounded&quot;:0};" vertex="1" parent="1">
          <mxGeometry x="290" y="210" width="140" height="750" as="geometry" />
        </mxCell>
        <mxCell id="X3vRfwmlhp6RXAS6wT66-2" value="doGet(request, response)" style="html=1;verticalAlign=bottom;startArrow=oval;endArrow=block;startSize=8;edgeStyle=elbowEdgeStyle;elbow=vertical;curved=0;rounded=0;" edge="1" parent="X3vRfwmlhp6RXAS6wT66-1" target="X3vRfwmlhp6RXAS6wT66-3">
          <mxGeometry relative="1" as="geometry">
            <mxPoint x="-90" y="70" as="sourcePoint" />
            <mxPoint x="55" y="70" as="targetPoint" />
          </mxGeometry>
        </mxCell>
        <mxCell id="X3vRfwmlhp6RXAS6wT66-3" value="" style="html=1;points=[];perimeter=orthogonalPerimeter;outlineConnect=0;targetShapes=umlLifeline;portConstraint=eastwest;newEdgeStyle={&quot;edgeStyle&quot;:&quot;elbowEdgeStyle&quot;,&quot;elbow&quot;:&quot;vertical&quot;,&quot;curved&quot;:0,&quot;rounded&quot;:0};" vertex="1" parent="X3vRfwmlhp6RXAS6wT66-1">
          <mxGeometry x="65" y="70" width="10" height="660" as="geometry" />
        </mxCell>
        <mxCell id="X3vRfwmlhp6RXAS6wT66-4" value="Session" style="shape=umlLifeline;perimeter=lifelinePerimeter;whiteSpace=wrap;html=1;container=0;dropTarget=0;collapsible=0;recursiveResize=0;outlineConnect=0;portConstraint=eastwest;newEdgeStyle={&quot;edgeStyle&quot;:&quot;elbowEdgeStyle&quot;,&quot;elbow&quot;:&quot;vertical&quot;,&quot;curved&quot;:0,&quot;rounded&quot;:0};" vertex="1" parent="1">
          <mxGeometry x="460" y="210" width="100" height="750" as="geometry" />
        </mxCell>
        <mxCell id="X3vRfwmlhp6RXAS6wT66-5" value="" style="html=1;points=[];perimeter=orthogonalPerimeter;outlineConnect=0;targetShapes=umlLifeline;portConstraint=eastwest;newEdgeStyle={&quot;edgeStyle&quot;:&quot;elbowEdgeStyle&quot;,&quot;elbow&quot;:&quot;vertical&quot;,&quot;curved&quot;:0,&quot;rounded&quot;:0};" vertex="1" parent="X3vRfwmlhp6RXAS6wT66-4">
          <mxGeometry x="45" y="90" width="10" height="30" as="geometry" />
        </mxCell>
        <mxCell id="X3vRfwmlhp6RXAS6wT66-9" value="HttpServletRequest" style="shape=umlLifeline;perimeter=lifelinePerimeter;whiteSpace=wrap;html=1;container=0;dropTarget=0;collapsible=0;recursiveResize=0;outlineConnect=0;portConstraint=eastwest;newEdgeStyle={&quot;edgeStyle&quot;:&quot;elbowEdgeStyle&quot;,&quot;elbow&quot;:&quot;vertical&quot;,&quot;curved&quot;:0,&quot;rounded&quot;:0};" vertex="1" parent="1">
          <mxGeometry x="580" y="210" width="120" height="750" as="geometry" />
        </mxCell>
        <mxCell id="X3vRfwmlhp6RXAS6wT66-21" value="User" style="shape=umlLifeline;perimeter=lifelinePerimeter;whiteSpace=wrap;html=1;container=0;dropTarget=0;collapsible=0;recursiveResize=0;outlineConnect=0;portConstraint=eastwest;newEdgeStyle={&quot;edgeStyle&quot;:&quot;elbowEdgeStyle&quot;,&quot;elbow&quot;:&quot;vertical&quot;,&quot;curved&quot;:0,&quot;rounded&quot;:0};" vertex="1" parent="1">
          <mxGeometry x="710" y="210" width="100" height="750" as="geometry" />
        </mxCell>
        <mxCell id="X3vRfwmlhp6RXAS6wT66-25" value="CallEvaluationDAO" style="shape=umlLifeline;perimeter=lifelinePerimeter;whiteSpace=wrap;html=1;container=0;dropTarget=0;collapsible=0;recursiveResize=0;outlineConnect=0;portConstraint=eastwest;newEdgeStyle={&quot;edgeStyle&quot;:&quot;elbowEdgeStyle&quot;,&quot;elbow&quot;:&quot;vertical&quot;,&quot;curved&quot;:0,&quot;rounded&quot;:0};" vertex="1" parent="1">
          <mxGeometry x="820" y="210" width="120" height="750" as="geometry" />
        </mxCell>
        <mxCell id="X3vRfwmlhp6RXAS6wT66-29" value="Exception" style="shape=umlLifeline;perimeter=lifelinePerimeter;whiteSpace=wrap;html=1;container=0;dropTarget=0;collapsible=0;recursiveResize=0;outlineConnect=0;portConstraint=eastwest;newEdgeStyle={&quot;edgeStyle&quot;:&quot;elbowEdgeStyle&quot;,&quot;elbow&quot;:&quot;vertical&quot;,&quot;curved&quot;:0,&quot;rounded&quot;:0};" vertex="1" parent="1">
          <mxGeometry x="960" y="210" width="100" height="750" as="geometry" />
        </mxCell>
        <mxCell id="X3vRfwmlhp6RXAS6wT66-31" value="Response" style="shape=umlLifeline;perimeter=lifelinePerimeter;whiteSpace=wrap;html=1;container=0;dropTarget=0;collapsible=0;recursiveResize=0;outlineConnect=0;portConstraint=eastwest;newEdgeStyle={&quot;edgeStyle&quot;:&quot;elbowEdgeStyle&quot;,&quot;elbow&quot;:&quot;vertical&quot;,&quot;curved&quot;:0,&quot;rounded&quot;:0};" vertex="1" parent="1">
          <mxGeometry x="1070" y="210" width="100" height="750" as="geometry" />
        </mxCell>
        <mxCell id="X3vRfwmlhp6RXAS6wT66-56" value="" style="html=1;points=[];perimeter=orthogonalPerimeter;outlineConnect=0;targetShapes=umlLifeline;portConstraint=eastwest;newEdgeStyle={&quot;edgeStyle&quot;:&quot;elbowEdgeStyle&quot;,&quot;elbow&quot;:&quot;vertical&quot;,&quot;curved&quot;:0,&quot;rounded&quot;:0};" vertex="1" parent="X3vRfwmlhp6RXAS6wT66-31">
          <mxGeometry x="45" y="690" width="10" height="20" as="geometry" />
        </mxCell>
        <mxCell id="X3vRfwmlhp6RXAS6wT66-36" value="GraduationCallDAO" style="shape=umlLifeline;perimeter=lifelinePerimeter;whiteSpace=wrap;html=1;container=0;dropTarget=0;collapsible=0;recursiveResize=0;outlineConnect=0;portConstraint=eastwest;newEdgeStyle={&quot;edgeStyle&quot;:&quot;elbowEdgeStyle&quot;,&quot;elbow&quot;:&quot;vertical&quot;,&quot;curved&quot;:0,&quot;rounded&quot;:0};" vertex="1" parent="1">
          <mxGeometry x="1180" y="210" width="120" height="750" as="geometry" />
        </mxCell>
        <mxCell id="X3vRfwmlhp6RXAS6wT66-43" value="getAttribute(&quot;user&quot;)" style="html=1;verticalAlign=bottom;endArrow=block;edgeStyle=elbowEdgeStyle;elbow=vertical;curved=0;rounded=0;" edge="1" parent="1" source="X3vRfwmlhp6RXAS6wT66-3" target="X3vRfwmlhp6RXAS6wT66-5">
          <mxGeometry relative="1" as="geometry">
            <mxPoint x="358" y="300" as="sourcePoint" />
            <Array as="points">
              <mxPoint x="420" y="300" />
              <mxPoint x="400" y="310" />
              <mxPoint x="420" y="300" />
            </Array>
            <mxPoint x="530" y="300" as="targetPoint" />
          </mxGeometry>
        </mxCell>
        <mxCell id="X3vRfwmlhp6RXAS6wT66-44" value="user" style="html=1;verticalAlign=bottom;endArrow=open;dashed=1;endSize=8;edgeStyle=elbowEdgeStyle;elbow=vertical;curved=0;rounded=0;" edge="1" parent="1" source="X3vRfwmlhp6RXAS6wT66-5" target="X3vRfwmlhp6RXAS6wT66-3">
          <mxGeometry x="0.0031" relative="1" as="geometry">
            <mxPoint x="358" y="330" as="targetPoint" />
            <Array as="points">
              <mxPoint x="493" y="330" />
              <mxPoint x="438" y="330" />
            </Array>
            <mxPoint x="508" y="330" as="sourcePoint" />
            <mxPoint as="offset" />
          </mxGeometry>
        </mxCell>
        <mxCell id="X3vRfwmlhp6RXAS6wT66-6" value="alt" style="shape=umlFrame;whiteSpace=wrap;html=1;pointerEvents=0;width=55;height=20;" vertex="1" parent="1">
          <mxGeometry x="280" y="370" width="1040" height="510" as="geometry" />
        </mxCell>
        <mxCell id="X3vRfwmlhp6RXAS6wT66-7" value="Try" style="text;html=1;align=center;verticalAlign=middle;whiteSpace=wrap;rounded=0;fontStyle=3;fontColor=#FF8000;" vertex="1" parent="1">
          <mxGeometry x="270" y="380" width="150" height="20" as="geometry" />
        </mxCell>
        <mxCell id="X3vRfwmlhp6RXAS6wT66-8" value="getId()" style="html=1;verticalAlign=bottom;endArrow=block;edgeStyle=elbowEdgeStyle;elbow=vertical;curved=0;rounded=0;" edge="1" parent="1" source="X3vRfwmlhp6RXAS6wT66-3" target="X3vRfwmlhp6RXAS6wT66-22">
          <mxGeometry relative="1" as="geometry">
            <mxPoint x="375" y="410" as="sourcePoint" />
            <Array as="points">
              <mxPoint x="620" y="400" />
              <mxPoint x="432" y="410" />
              <mxPoint x="412" y="420" />
              <mxPoint x="432" y="410" />
            </Array>
            <mxPoint x="517" y="410" as="targetPoint" />
          </mxGeometry>
        </mxCell>
        <mxCell id="X3vRfwmlhp6RXAS6wT66-11" value="" style="html=1;points=[];perimeter=orthogonalPerimeter;outlineConnect=0;targetShapes=umlLifeline;portConstraint=eastwest;newEdgeStyle={&quot;edgeStyle&quot;:&quot;elbowEdgeStyle&quot;,&quot;elbow&quot;:&quot;vertical&quot;,&quot;curved&quot;:0,&quot;rounded&quot;:0};" vertex="1" parent="1">
          <mxGeometry x="635" y="490" width="10" height="30" as="geometry" />
        </mxCell>
        <mxCell id="X3vRfwmlhp6RXAS6wT66-12" value="(Integer) getParameter(&quot;callid&quot;) &lt;br&gt;&lt;b&gt;&lt;font color=&quot;#ff8000&quot;&gt;?: [THROW NumberFormatExcpetion &lt;br&gt;| NullPointerExcpetion]&lt;/font&gt;&lt;/b&gt;" style="html=1;verticalAlign=bottom;endArrow=block;edgeStyle=elbowEdgeStyle;elbow=vertical;curved=0;rounded=0;" edge="1" parent="1" target="X3vRfwmlhp6RXAS6wT66-11" source="X3vRfwmlhp6RXAS6wT66-3">
          <mxGeometry relative="1" as="geometry">
            <mxPoint x="368" y="495" as="sourcePoint" />
            <Array as="points">
              <mxPoint x="600" y="490" />
              <mxPoint x="432" y="495" />
              <mxPoint x="412" y="505" />
              <mxPoint x="432" y="495" />
            </Array>
            <mxPoint x="517" y="495" as="targetPoint" />
          </mxGeometry>
        </mxCell>
        <mxCell id="X3vRfwmlhp6RXAS6wT66-13" value="callId" style="html=1;verticalAlign=bottom;endArrow=open;dashed=1;endSize=8;edgeStyle=elbowEdgeStyle;elbow=vertical;curved=0;rounded=0;" edge="1" parent="1" source="X3vRfwmlhp6RXAS6wT66-11" target="X3vRfwmlhp6RXAS6wT66-3">
          <mxGeometry x="0.0031" relative="1" as="geometry">
            <mxPoint x="368" y="525" as="targetPoint" />
            <Array as="points">
              <mxPoint x="580" y="520" />
              <mxPoint x="625" y="525" />
              <mxPoint x="570" y="525" />
            </Array>
            <mxPoint x="637" y="525" as="sourcePoint" />
            <mxPoint as="offset" />
          </mxGeometry>
        </mxCell>
        <mxCell id="X3vRfwmlhp6RXAS6wT66-17" value="" style="html=1;points=[];perimeter=orthogonalPerimeter;outlineConnect=0;targetShapes=umlLifeline;portConstraint=eastwest;newEdgeStyle={&quot;edgeStyle&quot;:&quot;elbowEdgeStyle&quot;,&quot;elbow&quot;:&quot;vertical&quot;,&quot;curved&quot;:0,&quot;rounded&quot;:0};" vertex="1" parent="1">
          <mxGeometry x="635" y="790" width="10" height="20" as="geometry" />
        </mxCell>
        <mxCell id="X3vRfwmlhp6RXAS6wT66-18" value="setAttribute(&quot;errorMessage&quot;, error message)" style="html=1;verticalAlign=bottom;endArrow=block;edgeStyle=elbowEdgeStyle;elbow=vertical;curved=0;rounded=0;" edge="1" parent="1" target="X3vRfwmlhp6RXAS6wT66-17">
          <mxGeometry relative="1" as="geometry">
            <mxPoint x="365" y="790" as="sourcePoint" />
            <Array as="points">
              <mxPoint x="422" y="790" />
              <mxPoint x="402" y="800" />
              <mxPoint x="422" y="790" />
            </Array>
            <mxPoint x="507" y="790" as="targetPoint" />
          </mxGeometry>
        </mxCell>
        <mxCell id="X3vRfwmlhp6RXAS6wT66-19" value="" style="html=1;points=[];perimeter=orthogonalPerimeter;outlineConnect=0;targetShapes=umlLifeline;portConstraint=eastwest;newEdgeStyle={&quot;edgeStyle&quot;:&quot;elbowEdgeStyle&quot;,&quot;elbow&quot;:&quot;vertical&quot;,&quot;curved&quot;:0,&quot;rounded&quot;:0};" vertex="1" parent="1">
          <mxGeometry x="635" y="840" width="10" height="20" as="geometry" />
        </mxCell>
        <mxCell id="X3vRfwmlhp6RXAS6wT66-20" value="getRequestDispatcher(errorPath).forward(req, resp)" style="html=1;verticalAlign=bottom;endArrow=block;edgeStyle=elbowEdgeStyle;elbow=vertical;curved=0;rounded=0;" edge="1" parent="1" target="X3vRfwmlhp6RXAS6wT66-19">
          <mxGeometry relative="1" as="geometry">
            <mxPoint x="365" y="840" as="sourcePoint" />
            <Array as="points">
              <mxPoint x="422" y="840" />
              <mxPoint x="402" y="850" />
              <mxPoint x="422" y="840" />
            </Array>
            <mxPoint x="507" y="840" as="targetPoint" />
          </mxGeometry>
        </mxCell>
        <mxCell id="X3vRfwmlhp6RXAS6wT66-22" value="" style="html=1;points=[];perimeter=orthogonalPerimeter;outlineConnect=0;targetShapes=umlLifeline;portConstraint=eastwest;newEdgeStyle={&quot;edgeStyle&quot;:&quot;elbowEdgeStyle&quot;,&quot;elbow&quot;:&quot;vertical&quot;,&quot;curved&quot;:0,&quot;rounded&quot;:0};" vertex="1" parent="1">
          <mxGeometry x="755" y="400" width="10" height="30" as="geometry" />
        </mxCell>
        <mxCell id="X3vRfwmlhp6RXAS6wT66-26" value="" style="html=1;points=[];perimeter=orthogonalPerimeter;outlineConnect=0;targetShapes=umlLifeline;portConstraint=eastwest;newEdgeStyle={&quot;edgeStyle&quot;:&quot;elbowEdgeStyle&quot;,&quot;elbow&quot;:&quot;vertical&quot;,&quot;curved&quot;:0,&quot;rounded&quot;:0};" vertex="1" parent="1">
          <mxGeometry x="875" y="580" width="10" height="20" as="geometry" />
        </mxCell>
        <mxCell id="X3vRfwmlhp6RXAS6wT66-28" value="idUser" style="html=1;verticalAlign=bottom;endArrow=open;dashed=1;endSize=8;edgeStyle=elbowEdgeStyle;elbow=vertical;curved=0;rounded=0;" edge="1" parent="1" source="X3vRfwmlhp6RXAS6wT66-22" target="X3vRfwmlhp6RXAS6wT66-3">
          <mxGeometry x="0.0031" relative="1" as="geometry">
            <mxPoint x="375" y="440" as="targetPoint" />
            <Array as="points">
              <mxPoint x="660" y="430" />
              <mxPoint x="690" y="440" />
              <mxPoint x="765" y="440" />
              <mxPoint x="710" y="440" />
            </Array>
            <mxPoint x="780" y="440" as="sourcePoint" />
            <mxPoint as="offset" />
          </mxGeometry>
        </mxCell>
        <mxCell id="X3vRfwmlhp6RXAS6wT66-30" value="" style="html=1;points=[];perimeter=orthogonalPerimeter;outlineConnect=0;targetShapes=umlLifeline;portConstraint=eastwest;newEdgeStyle={&quot;edgeStyle&quot;:&quot;elbowEdgeStyle&quot;,&quot;elbow&quot;:&quot;vertical&quot;,&quot;curved&quot;:0,&quot;rounded&quot;:0};" vertex="1" parent="1">
          <mxGeometry x="1005" y="730" width="10" height="30" as="geometry" />
        </mxCell>
        <mxCell id="X3vRfwmlhp6RXAS6wT66-37" value="" style="html=1;points=[];perimeter=orthogonalPerimeter;outlineConnect=0;targetShapes=umlLifeline;portConstraint=eastwest;newEdgeStyle={&quot;edgeStyle&quot;:&quot;elbowEdgeStyle&quot;,&quot;elbow&quot;:&quot;vertical&quot;,&quot;curved&quot;:0,&quot;rounded&quot;:0};" vertex="1" parent="1">
          <mxGeometry x="1235" y="550" width="10" height="20" as="geometry" />
        </mxCell>
        <mxCell id="X3vRfwmlhp6RXAS6wT66-39" value="" style="html=1;points=[];perimeter=orthogonalPerimeter;outlineConnect=0;targetShapes=umlLifeline;portConstraint=eastwest;newEdgeStyle={&quot;edgeStyle&quot;:&quot;elbowEdgeStyle&quot;,&quot;elbow&quot;:&quot;vertical&quot;,&quot;curved&quot;:0,&quot;rounded&quot;:0};" vertex="1" parent="1">
          <mxGeometry x="875" y="620" width="10" height="20" as="geometry" />
        </mxCell>
        <mxCell id="X3vRfwmlhp6RXAS6wT66-45" value="checkIfCourseOfCallIsTaughtByLecturer(callId, idUser) &lt;b&gt;&lt;font color=&quot;#ff8000&quot;&gt;?: [THROW GraduationCallDAOException]&lt;/font&gt;&lt;/b&gt;" style="html=1;verticalAlign=bottom;endArrow=block;edgeStyle=elbowEdgeStyle;elbow=vertical;curved=0;rounded=0;" edge="1" parent="1" source="X3vRfwmlhp6RXAS6wT66-3" target="X3vRfwmlhp6RXAS6wT66-37">
          <mxGeometry x="-0.0007" relative="1" as="geometry">
            <mxPoint x="375" y="640" as="sourcePoint" />
            <Array as="points">
              <mxPoint x="1150" y="550" />
              <mxPoint x="1200" y="640" />
              <mxPoint x="1160" y="650" />
              <mxPoint x="574" y="831.5" />
              <mxPoint x="436" y="820.5" />
              <mxPoint x="416" y="830.5" />
              <mxPoint x="436" y="820.5" />
            </Array>
            <mxPoint x="879" y="831.5" as="targetPoint" />
            <mxPoint as="offset" />
          </mxGeometry>
        </mxCell>
        <mxCell id="X3vRfwmlhp6RXAS6wT66-46" value="verbalizeAllMarksByCallId(currentDate, currentTime, callId)" style="html=1;verticalAlign=bottom;endArrow=block;edgeStyle=elbowEdgeStyle;elbow=vertical;curved=0;rounded=0;" edge="1" parent="1" source="X3vRfwmlhp6RXAS6wT66-3" target="X3vRfwmlhp6RXAS6wT66-39">
          <mxGeometry x="-0.0007" relative="1" as="geometry">
            <mxPoint x="375" y="680" as="sourcePoint" />
            <Array as="points">
              <mxPoint x="860" y="620" />
              <mxPoint x="990" y="610" />
              <mxPoint x="1205" y="680" />
              <mxPoint x="1165" y="690" />
              <mxPoint x="579" y="871.5" />
              <mxPoint x="441" y="860.5" />
              <mxPoint x="421" y="870.5" />
              <mxPoint x="441" y="860.5" />
            </Array>
            <mxPoint x="1250" y="680" as="targetPoint" />
            <mxPoint as="offset" />
          </mxGeometry>
        </mxCell>
        <mxCell id="X3vRfwmlhp6RXAS6wT66-47" value="checkIfAnyMarkIsVerbalizable(callId) &lt;b&gt;&lt;font color=&quot;#ff8000&quot;&gt;?: [THROW CallEvaluationDAOException]&lt;/font&gt;&lt;/b&gt;" style="html=1;verticalAlign=bottom;endArrow=block;edgeStyle=elbowEdgeStyle;elbow=vertical;curved=0;rounded=0;" edge="1" parent="1" source="X3vRfwmlhp6RXAS6wT66-3" target="X3vRfwmlhp6RXAS6wT66-26">
          <mxGeometry relative="1" as="geometry">
            <mxPoint x="375" y="710" as="sourcePoint" />
            <Array as="points">
              <mxPoint x="830" y="580" />
              <mxPoint x="690" y="710" />
              <mxPoint x="442" y="720" />
              <mxPoint x="422" y="730" />
              <mxPoint x="442" y="720" />
            </Array>
            <mxPoint x="777" y="720" as="targetPoint" />
          </mxGeometry>
        </mxCell>
        <mxCell id="X3vRfwmlhp6RXAS6wT66-51" value="" style="line;strokeWidth=3;align=left;verticalAlign=middle;spacingTop=-1;spacingLeft=3;spacingRight=3;rotatable=0;labelPosition=right;points=[];portConstraint=eastwest;dashed=1;strokeColor=#80FF00;" vertex="1" parent="1">
          <mxGeometry x="260" y="660" width="1090" height="8" as="geometry" />
        </mxCell>
        <mxCell id="X3vRfwmlhp6RXAS6wT66-52" value="getMessage()" style="html=1;verticalAlign=bottom;endArrow=block;edgeStyle=elbowEdgeStyle;elbow=vertical;curved=0;rounded=0;" edge="1" parent="1" target="X3vRfwmlhp6RXAS6wT66-30">
          <mxGeometry relative="1" as="geometry">
            <mxPoint x="365" y="730" as="sourcePoint" />
            <Array as="points">
              <mxPoint x="830" y="730" />
              <mxPoint x="800" y="740" />
              <mxPoint x="580" y="751" />
              <mxPoint x="442" y="740" />
              <mxPoint x="422" y="750" />
              <mxPoint x="442" y="740" />
            </Array>
            <mxPoint x="885" y="751" as="targetPoint" />
          </mxGeometry>
        </mxCell>
        <mxCell id="X3vRfwmlhp6RXAS6wT66-53" value="error message" style="html=1;verticalAlign=bottom;endArrow=open;dashed=1;endSize=8;edgeStyle=elbowEdgeStyle;elbow=vertical;curved=0;rounded=0;" edge="1" parent="1" source="X3vRfwmlhp6RXAS6wT66-30">
          <mxGeometry x="0.0031" relative="1" as="geometry">
            <mxPoint x="365" y="760" as="targetPoint" />
            <Array as="points">
              <mxPoint x="672" y="760" />
              <mxPoint x="877" y="749" />
              <mxPoint x="822" y="749" />
            </Array>
            <mxPoint x="987" y="760" as="sourcePoint" />
            <mxPoint as="offset" />
          </mxGeometry>
        </mxCell>
        <mxCell id="X3vRfwmlhp6RXAS6wT66-54" value="Catch(SQLException | &lt;b style=&quot;color: rgb(240, 240, 240); font-size: 11px; font-style: normal;&quot;&gt;&lt;font color=&quot;#ff8000&quot;&gt;NumberFormatExcpetion | NullPointerExcpetion | GraduationCallDAOException | CallEvaluationDAOException&lt;/font&gt;&lt;/b&gt;)" style="text;html=1;align=center;verticalAlign=middle;whiteSpace=wrap;rounded=0;fontStyle=3;fontColor=#FF8000;" vertex="1" parent="1">
          <mxGeometry x="290" y="689.5" width="330" height="20" as="geometry" />
        </mxCell>
        <mxCell id="X3vRfwmlhp6RXAS6wT66-55" value="verbalId" style="html=1;verticalAlign=bottom;endArrow=open;dashed=1;endSize=8;edgeStyle=elbowEdgeStyle;elbow=vertical;curved=0;rounded=0;" edge="1" parent="1" source="X3vRfwmlhp6RXAS6wT66-39" target="X3vRfwmlhp6RXAS6wT66-3">
          <mxGeometry x="0.0031" relative="1" as="geometry">
            <mxPoint x="490" y="638.75" as="targetPoint" />
            <Array as="points">
              <mxPoint x="785" y="638.75" />
              <mxPoint x="815" y="648.75" />
              <mxPoint x="890" y="648.75" />
              <mxPoint x="835" y="648.75" />
            </Array>
            <mxPoint x="880" y="638.75" as="sourcePoint" />
            <mxPoint as="offset" />
          </mxGeometry>
        </mxCell>
        <mxCell id="X3vRfwmlhp6RXAS6wT66-57" value="sendRedirect(&quot;/GoToVerbalRecap?verbalid=&quot; + verbalId)" style="html=1;verticalAlign=bottom;endArrow=block;edgeStyle=elbowEdgeStyle;elbow=vertical;curved=0;rounded=0;" edge="1" parent="1" source="X3vRfwmlhp6RXAS6wT66-3" target="X3vRfwmlhp6RXAS6wT66-56">
          <mxGeometry relative="1" as="geometry">
            <mxPoint x="365" y="870" as="sourcePoint" />
            <Array as="points">
              <mxPoint x="930" y="910" />
              <mxPoint x="990" y="880" />
              <mxPoint x="830" y="870" />
              <mxPoint x="800" y="880" />
              <mxPoint x="580" y="891" />
              <mxPoint x="442" y="880" />
              <mxPoint x="422" y="890" />
              <mxPoint x="442" y="880" />
            </Array>
            <mxPoint x="1005" y="870" as="targetPoint" />
          </mxGeometry>
        </mxCell>
      </root>
    </mxGraphModel>
  </diagram>
</mxfile>
